<svg width="24" height="24" viewBox="0 0 24 24" fill="none" xmlns="http://www.w3.org/2000/svg">
<path fill-rule="evenodd" clip-rule="evenodd" d="M9.26106 18.094C9.2639 18.4639 9.04326 18.7989 8.70233 18.9425C8.3614 19.086 7.96756 19.0096 7.70499 18.7491C7.44242 18.4885 7.36301 18.0953 7.50391 17.7532C7.6448 17.4112 7.97815 17.188 8.34806 17.188C8.85025 17.1863 9.25885 17.5918 9.26106 18.094V18.094Z" stroke="#E15501" stroke-width="2" stroke-linecap="round" stroke-linejoin="round"/>
<path fill-rule="evenodd" clip-rule="evenodd" d="M14.739 18.094C14.7418 18.4639 14.5212 18.7989 14.1802 18.9425C13.8393 19.086 13.4455 19.0096 13.1829 18.7491C12.9203 18.4885 12.8409 18.0953 12.9818 17.7532C13.1227 17.4112 13.4561 17.188 13.826 17.188C14.3282 17.1863 14.7368 17.5918 14.739 18.094V18.094Z" stroke="#E15501" stroke-width="2" stroke-linecap="round" stroke-linejoin="round"/>
<path d="M7 6.86902V5.86902C6.44772 5.86902 6 6.31673 6 6.86902H7ZM19.682 7.74902L20.6738 7.62155C20.6718 7.60571 20.6694 7.58992 20.6666 7.5742L19.682 7.74902ZM19.603 8.38902L18.6719 8.02418C18.6662 8.03877 18.6608 8.05349 18.6558 8.06833L19.603 8.38902ZM18.956 10.3L19.8835 10.6738C19.8906 10.6563 19.8971 10.6386 19.9032 10.6207L18.956 10.3ZM17.783 13.211L18.676 13.661C18.6886 13.6361 18.7001 13.6106 18.7105 13.5848L17.783 13.211ZM9.435 15.325V14.325L9.43087 14.325L9.435 15.325ZM7.71698 14.6215L7.01265 15.3313H7.01265L7.71698 14.6215ZM7 12.909H5.99999L6.00001 12.9127L7 12.909ZM6 6.86902C6 7.4213 6.44772 7.86902 7 7.86902C7.55228 7.86902 8 7.4213 8 6.86902H6ZM7 4.60002H8.00005L7.99995 4.59013L7 4.60002ZM6.391 4.00002V5.00003L6.396 5L6.391 4.00002ZM5 3.00002C4.44772 3.00002 4 3.44773 4 4.00002C4 4.5523 4.44772 5.00002 5 5.00002V3.00002ZM7 7.86902H17.273V5.86902H7V7.86902ZM17.273 7.86902C17.6104 7.86902 17.862 7.8628 18.1189 7.86846C18.3676 7.87394 18.5341 7.8904 18.6486 7.91649C18.7591 7.94169 18.7573 7.96198 18.7241 7.9312C18.6779 7.88835 18.6855 7.85676 18.6974 7.92383L20.6666 7.5742C20.5915 7.15127 20.4074 6.76468 20.0843 6.46495C19.7742 6.1773 19.4103 6.03884 19.0932 5.96654C18.5221 5.83632 17.7903 5.86902 17.273 5.86902V7.86902ZM18.6902 7.87649C18.6966 7.92647 18.6903 7.97726 18.6719 8.02418L20.5341 8.75385C20.675 8.39414 20.7231 8.00473 20.6738 7.62155L18.6902 7.87649ZM18.6558 8.06833L18.0088 9.97933L19.9032 10.6207L20.5502 8.7097L18.6558 8.06833ZM18.0285 9.92626L16.8555 12.8373L18.7105 13.5848L19.8835 10.6738L18.0285 9.92626ZM16.89 12.761C16.658 13.2215 16.4906 13.5497 16.3438 13.8C16.1965 14.0513 16.1053 14.1608 16.0485 14.2134C16.0142 14.2451 15.9689 14.325 15.348 14.325V16.325C16.0721 16.325 16.7878 16.254 17.4065 15.6816C17.6762 15.4322 17.8845 15.1265 18.0692 14.8116C18.2544 14.4956 18.4515 14.1066 18.676 13.661L16.89 12.761ZM15.348 14.325H9.435V16.325H15.348V14.325ZM9.43087 14.325C9.05283 14.3266 8.68967 14.1779 8.42131 13.9116L7.01265 15.3313C7.65765 15.9713 8.53052 16.3288 9.43913 16.325L9.43087 14.325ZM8.42131 13.9116C8.15295 13.6453 8.00139 13.2833 7.99999 12.9053L6.00001 12.9127C6.00337 13.8213 6.36764 14.6914 7.01265 15.3313L8.42131 13.9116ZM8 12.909V6.86902H6V12.909H8ZM8 6.86902V4.60002H6V6.86902H8ZM7.99995 4.59013C7.99121 3.70627 7.26989 2.99561 6.386 3.00003L6.396 5C6.17915 5.00109 6.00219 4.82674 6.00005 4.6099L7.99995 4.59013ZM6.391 3.00002H5V5.00002H6.391V3.00002Z" fill="#E15501"/>
</svg>
