<svg width="221" height="52" viewBox="0 0 221 52" fill="none" xmlns="http://www.w3.org/2000/svg">
<path d="M11.8514 50.3177C10.0694 49.1138 12.2078 45.553 13.4637 43.8743C14.1426 44.4254 15.2033 48.4949 15.7124 49.9786C16.3064 51.7166 13.1667 51.2079 11.8514 50.3177Z" fill="black"/>
<path d="M31.5215 50.411C29.7565 49.6141 31.4197 46.5026 32.438 45.0104C33.1168 45.3835 34.4746 48.5797 35.0855 49.7328C35.8068 51.0808 32.8283 50.996 31.5215 50.411Z" fill="black"/>
<path d="M2.22003 33.9126C3.19589 32.3017 5.6398 30.6655 6.88721 30.0126C4.80819 31.7083 3.91718 36.5408 3.4929 37.5158C3.06861 38.4908 1.79574 37.6853 1.24416 37.219C0.692588 36.7528 1.09991 35.7608 2.22003 33.9126Z" fill="black" stroke="black"/>
<path d="M47.0675 29.1224C45.8455 30.0889 43.3422 30.6823 42.1033 30.8519C44.3011 30.1143 46.1849 26.6891 46.7789 26.0618C47.3729 25.4344 48.2979 26.3839 48.6713 26.8757C49.0446 27.3759 48.4676 28.0202 47.0675 29.1224Z" fill="black" stroke="black"/>
<path d="M41.8148 13.1496C32.5228 23.0775 16.6799 23.0351 7.33704 13.1496C16.7732 3.45911 32.438 3.4252 41.8148 13.1496Z" stroke="black" stroke-width="2"/>
<path fill-rule="evenodd" clip-rule="evenodd" d="M32.3446 9.91101C31.3942 9.43624 30.4014 9.0632 29.4001 8.77494C27.338 11.861 23.0272 15.6168 15.9331 15.7609C16.5017 16.0746 17.0872 16.3544 17.6812 16.6003C21.7629 16.2866 28.7551 14.6333 32.3446 9.91101ZM18.7419 16.9987C26.133 17.8381 31.4536 14.0823 34.1521 10.9453C35.0855 11.5558 35.9681 12.2679 36.7912 13.0734C31.8609 17.7957 24.8432 19.0928 18.7419 16.9987ZM23.6043 8.12213C24.8602 8.0543 26.1246 8.12213 27.372 8.31712C24.8008 12.4375 19.0983 14.6588 15.4664 15.4896C15.0591 15.2438 14.6518 14.9894 14.2614 14.7096C19.6329 13.8025 22.4332 10.5977 23.6043 8.12213ZM21.8901 8.30017C18.377 8.83429 14.9997 10.4282 12.2758 13.0818C12.8273 13.6075 13.4129 14.0907 14.0153 14.5316C16.5865 13.5227 20.3797 11.3777 21.8901 8.30017Z" fill="#E15501"/>
<path fill-rule="evenodd" clip-rule="evenodd" d="M41.8147 13.7261C32.0475 23.4336 16.1876 23.1707 6.75989 13.1411V40.1016C16.9853 47.9523 31.1565 48.1812 41.628 40.6611L42.4002 40.1016V13.1411L41.8147 13.7261ZM16.6458 31.1148C18.0545 31.1148 19.1916 29.9787 19.1916 28.5713C19.1916 27.1639 18.0545 26.0279 16.6458 26.0279C15.2372 26.0279 14.1001 27.1639 14.1001 28.5713C14.1001 29.9787 15.2372 31.1148 16.6458 31.1148ZM34.8903 28.5713C34.8903 29.9787 33.7532 31.1148 32.3445 31.1148C30.9359 31.1148 29.7988 29.9787 29.7988 28.5713C29.7988 27.1639 30.9359 26.0279 32.3445 26.0279C33.7447 26.0279 34.8903 27.1639 34.8903 28.5713ZM20.2777 24.824L14.3886 22.4077L13.9389 23.5099L19.828 25.9261L20.2777 24.824ZM28.4411 24.8833L34.4829 22.891L34.8563 24.0186L28.8144 26.0109L28.4411 24.8833ZM27.6689 36.5577C27.7198 36.2356 27.5076 35.9303 27.1852 35.871C26.8627 35.8201 26.5572 36.0321 26.4978 36.3542C26.2263 37.9481 24.9619 38.7451 23.6636 38.7451C22.3652 38.7451 21.1263 37.9566 20.8887 36.3627C20.8378 36.0406 20.5408 35.8116 20.2099 35.8625C19.8874 35.9134 19.6583 36.2101 19.7092 36.5408C20.0486 38.8044 21.8731 39.932 23.6636 39.932C25.4456 39.932 27.287 38.8044 27.6689 36.5577Z" fill="black"/>
<path d="M13.0394 35.269C14.5625 35.269 15.7973 34.6238 15.7973 33.8278C15.7973 33.0318 14.5625 32.3865 13.0394 32.3865C11.5162 32.3865 10.2815 33.0318 10.2815 33.8278C10.2815 34.6238 11.5162 35.269 13.0394 35.269Z" fill="#E15501"/>
<path d="M36.2056 35.269C37.7288 35.269 38.9635 34.6238 38.9635 33.8278C38.9635 33.0318 37.7288 32.3865 36.2056 32.3865C34.6825 32.3865 33.4478 33.0318 33.4478 33.8278C33.4478 34.6238 34.6825 35.269 36.2056 35.269Z" fill="#E15501"/>
<path d="M48.7476 0L49.7659 0.0593467L48.7306 36.0914C48.2639 36.829 47.1692 36.7697 46.7789 35.9812L48.7476 0Z" fill="black"/>
<path d="M40.3213 3.35735L41.2972 3.06909L52.5069 37.3292C52.3117 38.177 51.2679 38.4907 50.64 37.8888L40.3213 3.35735Z" fill="black"/>
<path fill-rule="evenodd" clip-rule="evenodd" d="M76.674 8C72.9825 8 70 10.9792 70 14.6667V41.3333C70 45.0208 72.9825 48 76.674 48H214.326C218.018 48 221 45.0208 221 41.3333V14.6667C221 10.9792 218.018 8 214.326 8H76.674ZM93.3591 12.375H87.5193V15.0833H78.9682L80.9913 19.6667H78.9682V39.6667H84.808V20.2917H87.5193V32.5833L93.3591 31.4375V20.2917H95.8619V39.6667H101.702V20.2917V18.625V18.4167C101.597 16.5625 100.054 15.0833 98.1561 15.0833H93.3591V12.375ZM111.713 39.6667H105.873V20.7917L111.713 19.6667V26.75V39.6667ZM111.713 26.75L113.381 21.75H124.435V23.2083C124.435 25.1667 122.85 26.75 120.89 26.75H111.713ZM126.312 33.2083H131.318V39.6667H126.312V33.2083ZM137.575 39.6667H143.414V31.125L148.649 38.0833C150.318 40.2917 153.446 40.7292 155.657 39.0833L149.671 31.125H155.302V28.625V26.125V20.9167V19.4583V18.625C155.302 16.6667 153.717 15.0833 151.757 15.0833H135.698V20.9167H143.414L137.575 21.9792V39.6667ZM143.414 20.9167H150.297V26.125H144.666L143.414 31.125V20.9167ZM162.185 39.6667H161.351C159.39 39.6667 157.805 38.0833 157.805 36.125V16.4792L163.645 15.0833V20.0833V34.6667H173.03V20.0833H163.645L164.896 15.0833H173.03H175.325H175.533C177.389 15.1875 178.87 16.7292 178.87 18.625V39.6667H174.073H173.03H163.645H162.185ZM197.641 32.375V34.25V39.6667H196.181H185.544C183.584 39.6667 181.999 38.0833 181.999 36.125V35.5V34.25V15.0833H187.838V17.5833H189.924V24.0417H187.838V34.25H192.635V32.7917L197.641 32.375ZM204.732 39.6667H215.369H216.829V34.25V32.375L211.823 32.7917V34.25H207.026V23.2083H209.112V16.75H207.026V15.0833H201.186V34.25V35.5V36.125C201.186 38.0833 202.772 39.6667 204.732 39.6667Z" fill="#E15501"/>
</svg>
