<svg width="174" height="40" viewBox="0 0 174 40" fill="none" xmlns="http://www.w3.org/2000/svg">
<path d="M9.4886 39.3606C8.09463 38.4189 9.7674 35.6334 10.7498 34.3203C11.2809 34.7514 12.1106 37.9347 12.5089 39.0953C12.9735 40.4549 10.5175 40.057 9.4886 39.3606Z" fill="black"/>
<path d="M24.8756 39.4336C23.4949 38.8102 24.796 36.3762 25.5925 35.209C26.1236 35.5008 27.1856 38.001 27.6636 38.903C28.2278 39.9575 25.8979 39.8912 24.8756 39.4336Z" fill="black"/>
<path d="M1.95436 26.5283C2.71773 25.2682 4.62947 23.9882 5.60525 23.4775C3.97895 24.8039 3.28196 28.5842 2.95006 29.3469C2.61816 30.1095 1.62246 29.4795 1.191 29.1147C0.759528 28.75 1.07815 27.974 1.95436 26.5283Z" fill="black" stroke="black"/>
<path d="M37.0363 22.781C36.0804 23.5371 34.1222 24.0013 33.1531 24.134C34.8723 23.557 36.3459 20.8777 36.8106 20.3869C37.2753 19.8961 37.9988 20.6389 38.2909 21.0236C38.5829 21.4148 38.1316 21.9189 37.0363 22.781Z" fill="black" stroke="black"/>
<path d="M32.9271 10.286C25.6585 18.0521 13.2654 18.019 5.95703 10.286C13.3385 2.70568 25.5922 2.67915 32.9271 10.286Z" stroke="black" stroke-width="0.8"/>
<path fill-rule="evenodd" clip-rule="evenodd" d="M25.5189 7.75236C24.7755 7.38097 23.9988 7.08916 23.2156 6.86367C21.6025 9.27772 18.2304 12.2157 12.6811 12.3284C13.1258 12.5738 13.5839 12.7927 14.0485 12.985C17.2414 12.7396 22.7111 11.4464 25.5189 7.75236ZM14.8783 13.2967C20.6599 13.9533 24.822 11.0153 26.9328 8.56146C27.663 9.03897 28.3534 9.59605 28.9972 10.2261C25.1406 13.9201 19.651 14.9348 14.8783 13.2967ZM18.6818 6.35301C19.6642 6.29995 20.6533 6.35301 21.6291 6.50555C19.6178 9.72869 15.1571 11.4663 12.316 12.1162C11.9974 11.9239 11.6788 11.7249 11.3734 11.5061C15.5753 10.7964 17.7658 8.28955 18.6818 6.35301ZM17.341 6.49228C14.5928 6.9101 11.9509 8.15691 9.82013 10.2327C10.2516 10.6439 10.7096 11.0219 11.1809 11.3668C13.1922 10.5776 16.1594 8.89969 17.341 6.49228Z" fill="#E15501"/>
<path fill-rule="evenodd" clip-rule="evenodd" d="M32.927 10.7369C25.2867 18.3305 12.8803 18.1249 5.50555 10.2793V31.369C13.5043 37.5103 24.5897 37.6893 32.781 31.8067L33.385 31.369V10.2793L32.927 10.7369ZM13.2388 24.3391C14.3407 24.3391 15.2302 23.4504 15.2302 22.3495C15.2302 21.2486 14.3407 20.3599 13.2388 20.3599C12.1369 20.3599 11.2474 21.2486 11.2474 22.3495C11.2474 23.4504 12.1369 24.3391 13.2388 24.3391ZM27.5104 22.3495C27.5104 23.4504 26.621 24.3391 25.519 24.3391C24.4171 24.3391 23.5277 23.4504 23.5277 22.3495C23.5277 21.2486 24.4171 20.3599 25.519 20.3599C26.6143 20.3599 27.5104 21.2486 27.5104 22.3495ZM16.0798 19.4182L11.4731 17.5281L11.1213 18.3902L15.728 20.2803L16.0798 19.4182ZM22.4656 19.4646L27.1918 17.9061L27.4839 18.7881L22.7576 20.3467L22.4656 19.4646ZM21.8615 28.5969C21.9014 28.3448 21.7354 28.1061 21.4832 28.0597C21.2309 28.0199 20.9919 28.1857 20.9455 28.4377C20.7331 29.6845 19.744 30.3079 18.7284 30.3079C17.7128 30.3079 16.7436 29.6911 16.5578 28.4443C16.518 28.1923 16.2856 28.0132 16.0267 28.053C15.7745 28.0928 15.5953 28.3249 15.6351 28.5836C15.9006 30.3543 17.3278 31.2364 18.7284 31.2364C20.1224 31.2364 21.5628 30.3543 21.8615 28.5969Z" fill="black"/>
<path d="M10.4176 27.5889C11.6091 27.5889 12.5749 27.0841 12.5749 26.4614C12.5749 25.8388 11.6091 25.334 10.4176 25.334C9.22613 25.334 8.26025 25.8388 8.26025 26.4614C8.26025 27.0841 9.22613 27.5889 10.4176 27.5889Z" fill="#E15501"/>
<path d="M28.5391 27.5889C29.7306 27.5889 30.6965 27.0841 30.6965 26.4614C30.6965 25.8388 29.7306 25.334 28.5391 25.334C27.3476 25.334 26.3818 25.8388 26.3818 26.4614C26.3818 27.0841 27.3476 27.5889 28.5391 27.5889Z" fill="#E15501"/>
<path d="M38.3507 0L39.1473 0.0464237L38.3375 28.2324C37.9724 28.8094 37.1161 28.763 36.8107 28.1462L38.3507 0Z" fill="black"/>
<path d="M31.759 2.62588L32.5223 2.40039L41.2911 29.2003C41.1384 29.8635 40.322 30.1089 39.8307 29.638L31.759 2.62588Z" fill="black"/>
<path fill-rule="evenodd" clip-rule="evenodd" d="M60.1958 6.25781C57.3081 6.25781 54.975 8.58826 54.975 11.4728V32.3327C54.975 35.2172 57.3081 37.5477 60.1958 37.5477H167.874C170.761 37.5477 173.094 35.2172 173.094 32.3327V11.4728C173.094 8.58826 170.761 6.25781 167.874 6.25781H60.1958ZM73.2476 9.68014H68.6795V11.7987H61.9904L63.5729 15.384H61.9904V31.029H66.5586V15.8729H68.6795V25.488L73.2476 24.5917V15.8729H75.2054V31.029H79.7736V15.8729V14.5692V14.4062C79.692 12.9558 78.4847 11.7987 77 11.7987H73.2476V9.68014ZM87.6047 31.029H83.0365V16.2641L87.6047 15.384V20.9249V31.029ZM87.6047 20.9249L88.9098 17.0137H97.5567V18.1545C97.5567 19.6864 96.3168 20.9249 94.7832 20.9249H87.6047ZM99.025 25.9769H102.941V31.029H99.025V25.9769ZM107.835 31.029H112.403V24.3473L116.498 29.7904C117.803 31.5179 120.251 31.8601 121.98 30.5726L117.298 24.3473H121.703V22.3916V20.436V16.3618V15.2211V14.5692C121.703 13.0373 120.463 11.7987 118.929 11.7987H106.367V16.3618H112.403L107.835 17.193V31.029ZM112.403 16.3618H117.787V20.436H113.382L112.403 24.3473V16.3618ZM127.087 31.029H126.434C124.9 31.029 123.66 29.7904 123.66 28.2585V12.8906L128.229 11.7987V15.71V27.1177H135.57V15.71H128.229L129.207 11.7987H135.57H137.365H137.528C138.98 11.8802 140.138 13.0862 140.138 14.5692V31.029H136.386H135.57H128.229H127.087ZM154.822 25.3251V26.7918V31.029H153.68H145.359C143.826 31.029 142.586 29.7904 142.586 28.2585V27.7696V26.7918V11.7987H147.154V13.7543H148.785V18.8064H147.154V26.7918H150.906V25.651L154.822 25.3251ZM160.369 31.029H168.689H169.831V26.7918V25.3251L165.916 25.651V26.7918H162.163V18.1545H163.795V13.1025H162.163V11.7987H157.595V26.7918V27.7696V28.2585C157.595 29.7904 158.835 31.029 160.369 31.029Z" fill="#E15501"/>
</svg>
