<?xml version="1.0" encoding="utf-8"?>
<!-- Generator: Adobe Illustrator 23.1.0, SVG Export Plug-In . SVG Version: 6.00 Build 0)  -->
<svg version="1.1" id="Слой_1" xmlns="http://www.w3.org/2000/svg" xmlns:xlink="http://www.w3.org/1999/xlink" x="0px" y="0px"
	 viewBox="0 0 1352 1321" style="enable-background:new 0 0 1352 1321;" xml:space="preserve">
<style type="text/css">
	.st0{stroke:#000000;}
	.st1{fill:none;stroke:#000000;stroke-width:10;}
	.st2{fill-rule:evenodd;clip-rule:evenodd;fill:#E15501;}
	.st3{fill-rule:evenodd;clip-rule:evenodd;}
	.st4{fill:#E15501;}
</style>
<path d="M520.9,837.5c-21-14.2,4.2-56.2,19-76c8,6.5,20.5,54.5,26.5,72C573.4,854,536.4,848,520.9,837.5z"/>
<path d="M752.7,838.6c-20.8-9.4-1.2-46.1,10.8-63.7c8,4.4,24,42.1,31.2,55.7C803.2,846.5,768.1,845.5,752.7,838.6z"/>
<path class="st0" d="M407.4,644c11.5-19,40.3-38.3,55-46c-24.5,20-35,77-40,88.5s-20,2-26.5-3.5S394.2,665.8,407.4,644z"/>
<path class="st0" d="M935.9,587.5c-14.4,11.4-43.9,18.4-58.5,20.4c25.9-8.7,48.1-49.1,55.1-56.5c7-7.4,17.9,3.8,22.3,9.6
	C959.2,566.9,952.4,574.5,935.9,587.5z"/>
<path class="st1" d="M874,399.1c-109.5,117.1-296.2,116.6-406.3,0C578.9,284.8,763.5,284.4,874,399.1z"/>
<path class="st2" d="M762.4,360.9c-11.2-5.6-22.9-10-34.7-13.4c-24.3,36.4-75.1,80.7-158.7,82.4c6.7,3.7,13.6,7,20.6,9.9
	C637.7,436.1,720.1,416.6,762.4,360.9z M602.1,444.5c87.1,9.9,149.8-34.4,181.6-71.4c11,7.2,21.4,15.6,31.1,25.1
	C756.7,453.9,674,469.2,602.1,444.5z M659.4,339.8c14.8-0.8,29.7,0,44.4,2.3c-30.3,48.6-97.5,74.8-140.3,84.6
	c-4.8-2.9-9.6-5.9-14.2-9.2C612.6,406.8,645.6,369,659.4,339.8z M639.2,341.9c-41.4,6.3-81.2,25.1-113.3,56.4
	c6.5,6.2,13.4,11.9,20.5,17.1C576.7,403.5,621.4,378.2,639.2,341.9z"/>
<path class="st3" d="M874,405.9C758.9,520.4,572,517.3,460.9,399v318c120.5,92.6,287.5,95.3,410.9,6.6l9.1-6.6V399L874,405.9z
	 M577.4,611c16.6,0,30-13.4,30-30s-13.4-30-30-30c-16.6,0-30,13.4-30,30S560.8,611,577.4,611z M792.4,581c0,16.6-13.4,30-30,30
	c-16.6,0-30-13.4-30-30s13.4-30,30-30C778.9,551,792.4,564.4,792.4,581z M620.2,536.8l-69.4-28.5l-5.3,13l69.4,28.5L620.2,536.8z
	 M716.4,537.5l71.2-23.5l4.4,13.3l-71.2,23.5L716.4,537.5z M707.3,675.2c0.6-3.8-1.9-7.4-5.7-8.1c-3.8-0.6-7.4,1.9-8.1,5.7
	c-3.2,18.8-18.1,28.2-33.4,28.2c-15.3,0-29.9-9.3-32.7-28.1c-0.6-3.8-4.1-6.5-8-5.9c-3.8,0.6-6.5,4.1-5.9,8c4,26.7,25.5,40,46.6,40
	C681.1,715,702.8,701.7,707.3,675.2z"/>
<ellipse class="st4" cx="534.9" cy="643" rx="32.5" ry="17"/>
<ellipse class="st4" cx="807.9" cy="643" rx="32.5" ry="17"/>
<path d="M955.7,244l12,0.7l-12.2,425l0,0c-5.5,8.7-18.4,8-23-1.3l0,0L955.7,244z"/>
<path d="M856.4,283.6l11.5-3.4l132.1,404.1l0,0c-2.3,10-14.6,13.7-22,6.6l0,0L856.4,283.6z"/>
<path class="st2" d="M346,863c-17.7,0-32,14.3-32,32v128c0,17.7,14.3,32,32,32h660c17.7,0,32-14.3,32-32V895c0-17.7-14.3-32-32-32
	H346z M426,884h-28v13h-41l9.7,22H357v96h28v-93h13v59l28-5.5V922h12v93h28v-93v-8v-1h0c-0.5-8.9-7.9-16-17-16h-23V884z M514,1015
	h-28v-90.6l28-5.4v34V1015z M514,953l8-24h53v7c0,9.4-7.6,17-17,17H514z M584,984h24v31h-24V984z M638,1015h28v-41l25.1,33.4
	c8,10.6,23,12.7,33.6,4.8L696,974h27v-12v-12v-25v-7v-4c0-9.4-7.6-17-17-17h-77v28h37l-28,5.1V1015z M666,925h33v25h-27l-6,24V925z
	 M756,1015h-4c-9.4,0-17-7.6-17-17v-94.3l28-6.7v24v70h45v-70h-45l6-24h39h11h1v0c8.9,0.5,16,7.9,16,17v101h-23h-5h-45H756z
	 M926,980v9v26h-7h-51c-9.4,0-17-7.6-17-17v-3v-6v-92h28v12h10v31h-10v49h23v-7L926,980z M960,1015h51h7v-26v-9l-24,2v7h-23v-53h10
	v-31h-10v-8h-28v92v6v3C943,1007.4,950.6,1015,960,1015z"/>
</svg>
